<?xml version="1.0" standalone="no"?>
<!DOCTYPE svg PUBLIC "-//W3C//DTD SVG 20010904//EN"
 "http://www.w3.org/TR/2001/REC-SVG-20010904/DTD/svg10.dtd">
<svg version="1.0" xmlns="http://www.w3.org/2000/svg"
 width="512.000000pt" height="512.000000pt" viewBox="0 0 512.000000 512.000000"
 preserveAspectRatio="xMidYMid meet">
<metadata>
Created by potrace 1.11, written by Peter Selinger 2001-2013
</metadata>
<g transform="translate(0.000000,512.000000) scale(0.100000,-0.100000)"
fill="#000000" stroke="none">
<path d="M2280 5105 c-802 -88 -1511 -545 -1921 -1237 -172 -289 -279 -588
-331 -923 -29 -186 -31 -558 -5 -740 165 -1137 1045 -2018 2182 -2182 167 -24
543 -24 710 0 1303 188 2248 1313 2202 2622 -23 660 -277 1251 -737 1715 -363
367 -808 608 -1312 710 -233 48 -546 62 -788 35z m662 -64 c433 -69 834 -243
1178 -515 190 -149 403 -384 543 -596 174 -265 324 -647 372 -947 l7 -43 -416
0 -415 0 -11 43 c-75 297 -257 604 -483 813 -323 298 -719 454 -1157 454 -460
0 -870 -170 -1195 -495 -219 -218 -370 -481 -445 -772 l-11 -43 -415 0 -416 0
6 38 c44 244 117 466 226 687 128 261 264 452 468 658 425 431 976 687 1592
741 111 10 449 -4 572 -23z m-217 -1366 c277 -45 489 -153 546 -278 25 -57 24
-111 -7 -207 -20 -66 -139 -344 -175 -412 -8 -15 -12 -15 -59 0 -45 14 -67 32
-40 32 26 0 6 32 -32 52 -37 18 -67 23 -203 29 -88 4 -207 14 -265 22 -88 13
-169 21 -295 28 -11 1 -4 5 15 10 19 4 168 8 330 9 264 0 303 -2 375 -20 44
-11 106 -23 138 -27 48 -5 57 -3 57 10 0 9 -16 29 -35 44 -19 15 -35 33 -35
39 0 14 -23 24 -54 24 -13 0 -69 16 -125 35 -56 19 -108 35 -116 35 -7 0 -16
4 -19 8 -3 4 28 5 67 0 90 -10 388 -24 411 -20 9 2 16 11 14 20 -2 10 -48 31
-138 63 -74 25 -178 63 -230 82 -52 20 -144 49 -205 66 -206 56 -203 62 12 25
81 -14 175 -29 208 -34 33 -5 96 -21 140 -35 112 -36 155 -42 155 -21 0 9 -4
16 -10 16 -16 0 -12 27 10 70 11 22 17 40 14 40 -4 0 -24 -16 -45 -35 -22 -19
-48 -35 -59 -35 -27 0 -178 49 -185 60 -3 5 8 28 24 52 16 24 28 44 26 46 -2
2 -30 -10 -64 -27 -73 -38 -81 -38 -111 -6 -21 22 -22 29 -12 45 25 41 3 41
-58 0 -54 -37 -140 -64 -154 -50 -10 10 55 79 104 112 23 15 23 17 5 17 -11 1
-54 -5 -95 -13 -81 -16 -98 -13 -62 11 23 16 29 33 12 33 -6 0 -34 -16 -63
-35 -51 -34 -54 -35 -154 -35 -101 0 -103 0 -103 23 0 41 62 80 145 92 28 4
86 18 130 31 94 27 149 29 270 9z m96 -949 c57 -13 133 -27 166 -31 l62 -7
-18 -46 c-49 -122 -372 -805 -378 -798 -2 1 31 98 72 214 41 117 75 218 75
226 0 11 -15 13 -78 9 -74 -5 -229 9 -273 25 -13 5 61 16 195 29 158 15 223
25 242 37 59 40 11 55 -196 61 -85 3 -221 7 -303 10 -138 4 -205 16 -167 29
64 22 127 28 360 36 146 5 276 12 290 16 14 3 42 10 63 15 36 10 49 31 25 45
-6 4 -50 15 -97 25 -47 10 -129 27 -181 38 -52 11 -142 26 -200 34 l-105 13
85 12 c47 7 121 16 165 21 44 5 82 9 85 10 3 0 53 -10 111 -23z m-1951 -193
c0 -54 3 -122 6 -150 l7 -53 -410 0 -410 0 -7 46 c-3 26 -6 93 -6 150 l0 104
410 0 410 0 0 -97z m4200 -7 c0 -57 -3 -124 -6 -150 l-7 -46 -410 0 -410 0 7
53 c3 28 6 96 6 150 l0 97 410 0 410 0 0 -104z m-4076 -607 c101 -258 317
-539 546 -708 310 -230 641 -341 1018 -341 594 0 1125 295 1442 802 50 80 138
259 162 331 3 7 837 11 844 4 5 -5 -41 -169 -75 -269 -181 -530 -568 -1014
-1051 -1313 -877 -542 -2006 -489 -2835 134 -127 96 -334 297 -438 426 -216
268 -394 621 -477 946 -11 43 -20 80 -20 83 0 3 190 6 423 6 l422 0 39 -101z"/>
<path d="M2264 4925 c-82 -12 -160 -28 -171 -36 -50 -31 -54 -85 -19 -305 26
-165 37 -197 79 -228 27 -20 28 -20 135 -3 75 12 111 22 120 35 10 14 14 14
21 3 7 -10 24 -12 76 -6 56 6 65 9 60 23 -14 35 -37 190 -38 254 -2 79 12 74
-149 51 -130 -18 -127 -16 -112 -90 6 -29 7 -30 45 -19 21 5 41 7 45 4 3 -4 7
-37 7 -74 l2 -68 -44 -9 c-24 -5 -47 -5 -52 0 -12 12 -60 346 -50 356 11 11
191 39 229 35 32 -4 33 -3 26 26 -12 56 -23 76 -41 75 -10 -1 -86 -11 -169
-24z"/>
<path d="M2674 4922 c8 -25 -22 -462 -34 -511 -5 -19 -8 -36 -7 -37 1 0 44 -4
95 -7 l92 -7 1 93 c0 50 2 99 3 107 2 8 6 67 10 130 4 63 12 141 17 174 6 32
9 59 7 61 -2 2 -45 6 -97 10 -92 8 -93 7 -87 -13z"/>
<path d="M3070 4880 c0 -28 -136 -423 -165 -479 -9 -18 -15 -34 -13 -36 5 -4
162 -55 171 -55 4 0 7 8 7 18 0 9 12 51 27 93 l27 76 107 -35 c92 -31 111 -34
133 -24 34 15 60 59 91 152 32 95 32 140 2 168 -12 12 -104 50 -205 85 l-182
64 0 -27z m200 -146 c26 -11 40 -22 40 -35 0 -21 -37 -119 -50 -133 -8 -8 -77
9 -93 24 -10 9 41 160 54 160 5 0 27 -7 49 -16z"/>
<path d="M1661 4770 c-90 -38 -166 -71 -169 -74 -3 -3 2 -14 10 -23 18 -22
198 -452 198 -474 0 -9 2 -18 5 -21 6 -6 333 128 348 141 4 4 2 23 -4 42 -6
19 -13 40 -15 48 -3 9 -8 10 -17 3 -14 -12 -179 -83 -183 -79 -2 2 -54 129
-54 133 0 4 126 53 153 59 l27 5 -16 38 c-9 20 -18 45 -21 55 -6 20 -11 21
-32 4 -14 -12 -135 -67 -147 -67 -5 0 -55 112 -51 116 10 10 159 64 177 64 21
0 21 1 -6 50 -15 28 -30 50 -33 50 -3 -1 -80 -32 -170 -70z"/>
<path d="M3650 4618 c-35 -24 -151 -194 -211 -310 -55 -108 -43 -133 116 -231
67 -43 127 -77 132 -77 5 0 24 20 42 45 30 41 31 45 12 45 -25 0 -171 87 -171
103 0 13 169 289 184 299 13 8 70 -21 130 -66 25 -20 49 -36 52 -36 6 0 47 90
42 95 -1 1 -55 35 -119 74 -139 85 -161 91 -209 59z"/>
<path d="M4110 4361 c0 -13 -114 -142 -268 -300 l-111 -114 67 -63 c57 -54 68
-61 77 -47 14 23 183 209 289 317 48 49 83 92 79 96 -4 3 -36 33 -70 65 -35
32 -63 53 -63 46z"/>
<path d="M841 4216 c-54 -54 -61 -65 -44 -70 20 -6 367 -363 375 -387 4 -9 50
30 141 120 l136 135 -30 38 c-17 21 -34 38 -38 38 -3 0 -13 -10 -21 -23 -8
-13 -39 -45 -68 -72 l-53 -49 -110 110 c-60 60 -131 135 -157 166 -26 32 -52
58 -57 58 -6 0 -39 -29 -74 -64z"/>
<path d="M4325 4048 c-44 -16 -299 -193 -329 -229 -54 -64 -48 -83 72 -254 83
-118 103 -133 166 -121 44 8 259 150 328 217 72 68 69 94 -28 234 -112 163
-134 179 -209 153z m115 -190 c16 -22 30 -46 30 -53 0 -14 -273 -205 -293
-205 -17 0 -67 69 -67 92 0 8 24 31 53 51 28 19 92 63 141 96 49 34 93 61 97
61 5 0 22 -19 39 -42z"/>
<path d="M617 3948 c-70 -111 -157 -255 -157 -261 0 -4 6 -7 13 -7 15 0 412
-243 443 -272 26 -23 17 -34 134 156 l92 149 -29 24 c-46 38 -63 46 -63 29 0
-21 -89 -166 -102 -166 -13 0 -118 63 -118 71 0 11 76 124 94 138 16 13 13 17
-35 46 l-52 33 -29 -57 c-16 -31 -37 -67 -48 -81 -19 -25 -19 -25 -52 -7 -18
10 -42 24 -52 32 -19 14 -19 15 0 50 10 20 36 58 56 85 l38 50 -40 20 c-21 11
-44 20 -49 20 -6 0 -25 -24 -44 -52z"/>
<path d="M651 1900 c-134 -48 -146 -63 -112 -143 20 -46 20 -47 1 -57 -10 -5
-21 -10 -24 -10 -8 0 -46 91 -46 111 0 11 -5 19 -11 19 -9 0 -47 -17 -57 -25
-9 -8 73 -187 90 -196 23 -12 100 9 164 45 46 26 53 50 29 113 -15 38 -15 47
-4 54 8 5 18 9 22 9 10 0 47 -86 47 -111 0 -24 21 -24 49 -1 l20 17 -37 89
c-43 104 -55 112 -131 86z"/>
<path d="M4313 1762 l-20 -48 46 -19 c25 -10 99 -44 165 -75 l119 -57 34 76
c56 122 55 117 27 136 -14 9 -27 15 -29 13 -1 -2 -13 -26 -25 -54 l-22 -52
-121 55 c-67 30 -126 59 -131 64 -17 16 -23 10 -43 -39z"/>
<path d="M813 1671 c-12 -10 -81 -51 -153 -91 -71 -40 -130 -74 -130 -77 0 -5
25 -52 38 -71 7 -10 23 -5 76 24 37 20 68 35 70 33 2 -2 9 -15 16 -28 14 -27
14 -27 -65 -68 -27 -14 -52 -27 -54 -29 -2 -2 8 -23 23 -48 l26 -44 87 52 c49
29 117 68 153 87 36 19 67 35 70 37 4 2 -41 92 -47 92 -1 0 -28 -16 -60 -35
l-58 -35 -17 21 c-10 12 -18 25 -18 30 0 5 27 22 60 39 33 17 60 33 60 37 0 7
-49 93 -53 93 -1 -1 -12 -9 -24 -19z"/>
<path d="M4216 1578 c-50 -85 -53 -94 -35 -100 29 -11 230 -127 266 -154 l31
-24 55 98 56 97 -26 21 -26 21 -24 -46 c-34 -63 -37 -65 -71 -47 -45 23 -47
33 -18 76 14 22 26 42 26 45 0 5 -55 35 -65 35 -3 0 -5 -6 -5 -14 0 -20 -33
-76 -45 -76 -5 0 -22 8 -37 18 l-28 18 31 48 c16 27 29 49 27 51 -7 6 -47 25
-52 25 -3 0 -30 -42 -60 -92z"/>
<path d="M4088 1388 c-56 -71 -64 -84 -49 -92 9 -5 73 -56 143 -112 l127 -103
32 40 c17 22 30 42 28 44 -2 2 -30 23 -62 48 l-58 45 36 41 37 40 -29 25 c-26
23 -29 23 -38 7 -5 -10 -20 -30 -32 -45 l-22 -28 -31 22 c-16 12 -30 25 -30
29 0 4 18 25 39 47 l39 41 -28 16 c-16 10 -30 17 -32 17 -3 0 -34 -37 -70 -82z"/>
<path d="M1017 1343 c-16 -8 -92 -37 -170 -64 -141 -49 -152 -57 -122 -87 11
-12 17 -12 36 1 52 32 63 30 98 -18 l33 -45 -34 -34 -34 -34 36 -45 c19 -26
38 -46 41 -47 3 0 11 11 17 24 5 12 53 82 105 153 l95 130 -32 41 c-35 46 -31
45 -69 25z m-33 -75 c-4 -7 -18 -28 -31 -46 l-25 -33 -20 26 c-11 14 -19 27
-17 29 7 4 84 34 92 35 5 1 5 -5 1 -11z"/>
<path d="M1125 1231 c-3 -10 -44 -83 -91 -162 l-85 -143 33 -28 c18 -15 36
-28 40 -28 4 0 22 13 40 28 18 15 55 46 82 67 l49 40 -17 -33 c-9 -17 -35 -60
-56 -95 l-40 -62 36 -32 37 -32 27 22 c15 12 80 65 143 117 116 95 116 95 94
112 -21 16 -23 16 -37 0 -20 -24 -140 -125 -140 -119 0 3 23 44 52 92 l51 86
-35 35 -35 36 -89 -74 c-86 -71 -88 -72 -64 -33 13 22 40 65 61 95 l37 55 -44
38 c-38 34 -43 35 -49 18z"/>
<path d="M3907 1182 c-32 -32 -35 -40 -23 -52 7 -8 44 -82 82 -165 37 -82 69
-152 71 -154 2 -3 14 6 27 18 24 22 24 23 5 42 -10 10 -21 30 -25 45 -6 23 -1
32 32 59 37 31 40 32 64 17 14 -9 30 -22 37 -30 10 -11 19 -7 58 29 45 41 46
43 24 51 -12 5 -86 47 -164 93 -78 47 -144 85 -147 85 -2 0 -21 -17 -41 -38z
m142 -138 c5 -5 -30 -44 -39 -44 -5 0 -50 84 -50 95 0 4 76 -39 89 -51z"/>
<path d="M3663 981 l-42 -31 49 -66 c28 -37 74 -102 103 -145 28 -43 55 -78
59 -79 7 0 140 91 161 110 5 4 1 22 -7 39 -16 30 -17 30 -36 11 -32 -32 -71
-54 -79 -44 -11 11 -142 196 -156 219 -9 15 -15 13 -52 -14z"/>
<path d="M1405 838 c-38 -68 -79 -137 -92 -155 l-23 -32 22 -14 c13 -8 56 -33
96 -56 l73 -42 19 23 c11 13 19 25 20 28 0 3 -24 18 -54 33 l-54 29 21 36 c11
20 22 38 23 40 4 6 48 -19 71 -40 l22 -20 20 33 21 34 -28 13 c-15 8 -37 20
-49 28 l-22 14 20 35 c20 34 21 34 47 18 15 -9 37 -25 49 -36 21 -19 22 -19
37 11 9 17 16 33 16 35 0 4 -177 107 -184 107 -2 0 -34 -55 -71 -122z"/>
<path d="M3457 856 c-21 -13 -35 -26 -29 -29 5 -4 22 -87 37 -186 25 -157 30
-179 44 -171 41 24 45 28 34 42 -5 7 -13 27 -16 43 -5 28 -2 33 43 58 l48 27
25 -30 c14 -16 27 -34 29 -40 3 -10 18 -3 105 44 8 5 -255 266 -267 266 -8 0
-32 -11 -53 -24z m82 -133 l31 -37 -26 -14 c-14 -7 -28 -12 -30 -9 -9 8 -21
97 -13 97 4 0 21 -17 38 -37z"/>
<path d="M1670 827 c0 -14 -91 -252 -115 -300 -13 -26 -12 -28 19 -41 63 -26
76 -28 76 -12 0 31 42 126 56 126 12 0 13 -15 8 -83 l-7 -83 45 -17 c49 -19
59 -21 57 -9 -1 4 -1 40 0 80 1 65 3 72 21 72 39 0 90 161 59 187 -8 6 -38 21
-67 32 -28 12 -74 30 -102 41 -38 15 -50 17 -50 7z m124 -108 c6 -6 6 -19 0
-36 -8 -23 -16 -28 -38 -26 -37 3 -37 3 -24 46 10 31 15 36 32 31 12 -3 25
-10 30 -15z"/>
<path d="M3250 760 c-52 -21 -95 -42 -95 -46 0 -5 29 -82 64 -171 62 -155 66
-161 88 -152 13 5 34 13 47 18 l25 10 -31 72 c-33 80 -32 84 35 95 20 4 37 10
37 15 0 6 -15 45 -25 66 -1 2 -19 -6 -40 -17 -22 -11 -44 -20 -51 -20 -11 0
-34 41 -34 61 0 10 37 27 82 38 26 6 26 6 10 38 l-17 31 -95 -38z"/>
<path d="M1930 623 c-12 -54 -30 -131 -40 -172 -20 -80 -19 -91 9 -91 15 0 22
19 41 108 13 59 27 114 31 122 5 8 9 -43 9 -116 l0 -131 32 -7 c17 -3 32 -5
33 -4 2 2 26 50 54 107 29 57 54 101 57 98 3 -2 -7 -53 -21 -112 -14 -60 -24
-109 -23 -110 5 -4 92 -24 94 -22 1 1 18 72 37 157 20 85 39 164 43 176 5 19
-1 22 -52 32 -31 7 -60 12 -64 12 -3 0 -24 -36 -45 -80 -21 -44 -41 -80 -45
-80 -3 0 -3 32 -2 71 5 105 1 113 -59 127 -28 7 -54 12 -59 12 -4 0 -17 -44
-30 -97z"/>
<path d="M2963 673 c-7 -2 -13 -13 -13 -23 0 -28 -23 -120 -29 -120 -9 0 -71
98 -71 111 0 8 -15 10 -50 5 -87 -12 -86 -8 -10 -119 66 -96 71 -106 77 -170
6 -63 8 -68 27 -63 12 3 30 6 41 6 40 1 43 11 31 80 -10 56 -9 76 7 145 10 44
25 97 32 118 12 35 12 37 -9 36 -11 0 -27 -3 -33 -6z"/>
<path d="M2402 623 c1 -10 -29 -88 -65 -174 -37 -86 -67 -159 -67 -163 0 -3
13 -6 29 -6 25 0 30 5 35 35 10 51 26 62 82 56 43 -5 48 -9 56 -36 4 -16 5
-37 3 -46 -4 -13 5 -17 51 -23 31 -4 58 -5 60 -3 2 1 -13 83 -33 181 -40 196
-41 196 -118 196 -26 0 -33 -4 -33 -17z m47 -177 c1 -15 -4 -17 -26 -11 -16 4
-30 8 -32 10 -2 2 5 25 15 52 l18 48 12 -40 c7 -22 13 -48 13 -59z"/>
</g>
</svg>
